<?xml version="1.0" encoding="iso-8859-1"?>
<!-- Generator: Adobe Illustrator 19.0.0, SVG Export Plug-In . SVG Version: 6.00 Build 0)  -->
<svg version="1.1" id="Capa_1" xmlns="http://www.w3.org/2000/svg" xmlns:xlink="http://www.w3.org/1999/xlink" x="0px" y="0px"
	 viewBox="0 0 368 368" style="enable-background:new 0 0 368 368;" xml:space="preserve">
<g>
	<g>
		<path d="M312,192c-9,0-17.312,2.992-24,8.016V200c0-22.056-17.944-40-40-40c-13.072,0-24.696,6.304-32,16.024
			c-7.304-9.72-18.928-16.024-32-16.024c-9,0-17.312,2.992-24,8.016v-1.712c29.312-14.952,48-45.112,48-78.304
			c0-48.52-39.48-88-88-88S32,39.48,32,88c0,33.192,18.688,63.352,48,78.304V232.2c-6.704-5.072-14.96-8.2-24-8.2
			c-22.056,0-40,17.944-40,40v96c0,4.416,3.584,8,8,8s8-3.584,8-8v-96c0-13.232,10.768-24,24-24s24,10.768,24,24v64
			c0,4.416,3.584,8,8,8s8-3.584,8-8V161.28V88c0-13.232,10.768-24,24-24s24,10.768,24,24v73.28V200v64c0,4.416,3.584,8,8,8
			s8-3.584,8-8v-64c0-13.232,10.768-24,24-24s24,10.768,24,24v64c0,4.416,3.576,8,8,8s8-3.584,8-8v-64c0-13.232,10.768-24,24-24
			s24,10.768,24,24v32v32c0,4.416,3.576,8,8,8s8-3.584,8-8v-32c0-13.232,10.768-24,24-24s24,10.768,24,24v128c0,4.416,3.576,8,8,8
			s8-3.584,8-8V232C352,209.944,334.056,192,312,192z M120,48c-22.056,0-40,17.944-40,40v59.832C60.232,134.64,48,112.304,48,88
			c0-39.696,32.304-72,72-72s72,32.304,72,72c0,24.304-12.232,46.64-32,59.832V88C160,65.944,142.056,48,120,48z"/>
	</g>
</g>
<g>
</g>
<g>
</g>
<g>
</g>
<g>
</g>
<g>
</g>
<g>
</g>
<g>
</g>
<g>
</g>
<g>
</g>
<g>
</g>
<g>
</g>
<g>
</g>
<g>
</g>
<g>
</g>
<g>
</g>
</svg>
